<?xml version="1.0" encoding="UTF-8"?>
<svg width="992px" height="994px" viewBox="4 3 992 994" xmlns="http://www.w3.org/2000/svg" xmlns:xlink="http://www.w3.org/1999/xlink" version="1.1">
 <!-- Generated by Pixelmator Pro 2.1.2 -->
 <path id="Facebook-icon" d="M577.624 647 L692.561 647 693.63 640.75 C694.218 637.313 696.071 625.95 697.747 615.5 699.423 605.05 702.091 587.5 703.676 576.5 705.261 565.5 708.119 546.375 710.028 534 711.937 521.625 713.804 509.587 714.177 507.25 714.855 503 714.855 503 646.194 503 L577.532 503 577.864 446.75 C578.19 391.593 578.241 390.354 580.454 383 581.695 378.875 584.265 372.234 586.164 368.243 588.292 363.771 591.971 358.45 595.749 354.381 599.121 350.749 604.509 345.979 607.722 343.781 610.935 341.583 616.979 338.533 621.153 337.003 625.327 335.473 632.953 333.497 638.099 332.611 645.541 331.33 654.932 331 684.006 331 L720.557 331 720.557 269.615 720.557 208.23 712.864 207.1 C708.634 206.478 697.802 205.078 688.794 203.989 679.786 202.9 664.153 201.313 654.054 200.463 643.954 199.613 626.758 198.845 615.839 198.756 604.921 198.668 590.851 199.155 584.573 199.839 578.294 200.523 567.679 202.193 560.982 203.551 554.286 204.908 544.459 207.404 539.145 209.099 533.832 210.793 523.231 215.266 515.588 219.038 506.417 223.564 498.145 228.592 491.262 233.823 485.526 238.183 476.593 246.203 471.41 251.645 466.228 257.088 458.95 266.143 455.236 271.768 451.522 277.393 446.556 285.933 444.198 290.747 441.841 295.561 438.28 303.897 436.285 309.272 434.29 314.647 431.564 323.647 430.227 329.272 428.89 334.897 427.132 343.775 426.319 349 425.507 354.225 424.383 363.9 423.822 370.5 423.26 377.1 422.797 409.612 422.791 442.75 L422.781 503 359.751 503 296.722 503 296.722 575 296.722 647 359.751 647 422.781 647 422.781 821.417 C422.781 960.014 423.036 995.937 424.022 996.338 424.704 996.615 423.922 996.829 422.284 996.813 420.647 996.797 416.18 996.201 412.359 995.489 408.537 994.777 400.274 993.025 393.996 991.597 387.718 990.168 376.551 987.402 369.181 985.45 361.811 983.498 351.314 980.367 345.855 978.492 340.396 976.616 330.448 973.045 323.748 970.556 317.049 968.067 304.542 962.842 295.956 958.945 287.37 955.048 273.645 948.214 265.456 943.76 257.267 939.305 245.207 932.296 238.656 928.185 232.105 924.073 221.608 917.076 215.33 912.635 209.052 908.194 199.672 901.193 194.486 897.077 189.299 892.961 180.589 885.76 175.13 881.075 169.671 876.39 158.234 865.569 149.714 857.028 141.195 848.488 130.191 836.775 125.262 831 120.333 825.225 112.973 816.225 108.906 811 104.839 805.775 97.905 796.325 93.496 790 89.087 783.675 82.102 773.003 77.973 766.283 73.844 759.564 67.344 748.314 63.528 741.283 59.712 734.253 53.389 721.55 49.476 713.055 45.563 704.561 39.721 690.646 36.494 682.134 33.267 673.622 29.094 661.897 27.221 656.079 25.347 650.26 21.755 637.458 19.239 627.63 16.723 617.801 13.577 604.076 12.248 597.13 10.919 590.183 8.947 577.336 7.866 568.581 6.785 559.826 5.378 544.526 4.741 534.581 4.035 523.563 3.811 506.149 4.167 490 4.536 473.271 5.517 456.863 6.827 445.5 7.968 435.6 10.03 421.2 11.409 413.5 12.788 405.8 15.474 393.2 17.378 385.5 19.282 377.8 22.366 366.1 24.232 359.5 26.098 352.9 30.614 339.4 34.267 329.5 37.921 319.6 43.777 305.2 47.28 297.5 50.783 289.8 57.047 276.975 61.199 269 65.351 261.025 72.305 248.65 76.652 241.5 80.999 234.35 88.163 223.325 92.573 217 96.982 210.675 103.515 201.718 107.09 197.095 110.665 192.473 118.799 182.573 125.165 175.095 131.532 167.618 143.368 154.918 151.469 146.874 159.569 138.83 171.151 128.03 177.206 122.874 183.262 117.718 191.972 110.557 196.562 106.961 201.152 103.364 209.374 97.216 214.834 93.299 220.293 89.382 231.236 82.158 239.152 77.246 247.068 72.333 260.021 64.894 267.937 60.713 275.853 56.533 288.583 50.223 296.226 46.692 303.869 43.161 317.045 37.66 325.507 34.469 333.969 31.277 345.751 27.157 351.688 25.312 357.626 23.467 369.686 20.12 378.488 17.874 387.29 15.627 399.852 12.735 406.403 11.447 412.954 10.159 425.461 8.197 434.196 7.088 442.93 5.978 456.33 4.607 463.973 4.039 471.616 3.472 487.942 3.006 500.252 3.004 512.563 3.002 528.643 3.467 535.985 4.038 543.328 4.609 556.482 5.951 565.217 7.021 573.952 8.09 586.74 10.061 593.634 11.4 600.529 12.74 614.152 15.91 623.908 18.445 633.664 20.98 646.371 24.598 652.146 26.486 657.922 28.374 669.56 32.578 678.009 35.829 686.458 39.08 700.269 44.966 708.701 48.909 717.132 52.853 730.157 59.448 737.643 63.567 745.13 67.685 756.967 74.689 763.947 79.131 770.927 83.572 781.572 90.73 787.602 95.037 793.632 99.344 803.012 106.427 808.446 110.778 813.881 115.128 822.347 122.199 827.26 126.491 832.173 130.783 843.129 141.316 851.606 149.898 860.084 158.479 870.824 170 875.475 175.5 880.125 181 887.273 189.775 891.358 195 895.444 200.225 902.402 209.675 906.821 216 911.241 222.325 918.27 233.058 922.441 239.852 926.613 246.645 933.56 258.795 937.88 266.852 942.2 274.908 948.874 288.521 952.711 297.101 956.548 305.682 962.405 320.082 965.727 329.101 969.05 338.121 973.288 350.675 975.147 357 977.005 363.325 979.924 374.125 981.633 381 983.342 387.875 985.796 398.675 987.086 405 988.376 411.325 990.112 421.225 990.942 427 991.773 432.775 993.251 445.6 994.226 455.5 995.453 467.953 996 481.974 996 501 996 516.125 995.419 535.475 994.71 544 994 552.525 992.738 564.9 991.905 571.5 991.072 578.1 989.282 589.35 987.928 596.5 986.573 603.65 983.872 615.8 981.926 623.5 979.979 631.2 977.169 641.775 975.682 647 974.194 652.225 970.635 663.025 967.772 671 964.909 678.975 960.308 690.9 957.547 697.5 954.786 704.1 948.331 717.87 943.204 728.101 938.076 738.332 930.97 751.607 927.412 757.601 923.854 763.595 916.614 775.009 911.323 782.965 906.033 790.922 898.379 801.721 894.316 806.965 890.252 812.209 881.769 822.575 875.466 830 869.162 837.425 858.191 849.35 851.086 856.5 843.981 863.65 833.48 873.589 827.751 878.588 822.022 883.586 812.421 891.623 806.416 896.449 800.411 901.274 789.394 909.446 781.934 914.609 774.475 919.773 762.491 927.563 755.305 931.921 748.119 936.279 733.899 944.08 723.705 949.255 713.512 954.431 700.929 960.507 695.742 962.759 690.556 965.011 680.059 969.172 672.417 972.007 664.774 974.841 654.5 978.45 649.587 980.026 644.674 981.601 633.719 984.707 625.243 986.928 616.767 989.148 604.412 992.077 597.788 993.436 591.165 994.795 583.36 996.155 580.444 996.458 577.528 996.762 575.701 996.745 576.384 996.422 577.369 995.954 577.624 959.97 577.624 821.417 L577.624 647 Z" fill="#ffffff" fill-opacity="1" stroke="none"/>
</svg>
