<?xml version="1.0" encoding="UTF-8"?>
<svg width="992px" height="976px" viewBox="4 13 992 976" xmlns="http://www.w3.org/2000/svg" xmlns:xlink="http://www.w3.org/1999/xlink" version="1.1">
 <!-- Generated by Pixelmator Pro 2.1.2 -->
 <path id="Github-icon" d="M625.765 271.264 C602.688 265.683 589.958 262.952 582.588 261.595 575.218 260.239 563.135 258.425 555.737 257.564 548.34 256.704 533.044 255.522 521.748 254.939 507.158 254.185 495.135 254.191 480.242 254.959 468.711 255.553 452.517 256.915 444.255 257.984 435.993 259.054 423.426 261.021 416.329 262.356 409.232 263.692 397.587 266.257 390.45 268.058 L377.475 271.332 362.162 261.58 C353.739 256.216 338.808 247.814 328.982 242.908 319.155 238.003 306.202 232.134 300.197 229.866 294.192 227.599 283.918 224.365 277.367 222.679 267.519 220.146 263.431 219.605 253.762 219.557 244.404 219.511 241.878 219.8 241.122 221 240.602 221.825 238.84 226.55 237.207 231.5 235.573 236.45 233.126 245.161 231.769 250.857 230.411 256.553 228.726 265.778 228.023 271.357 227.32 276.936 226.745 287.8 226.745 295.5 226.745 303.659 227.447 314.089 228.426 320.5 229.351 326.55 231.3 335.55 232.758 340.5 234.216 345.45 235.597 350.175 235.827 351 236.057 351.825 233.247 356.1 229.584 360.5 225.92 364.9 220.274 372.55 217.037 377.5 213.8 382.45 209.022 390.775 206.418 396 203.815 401.225 200.101 409.775 198.164 415 196.228 420.225 193.476 429.143 192.049 434.818 190.622 440.493 188.787 449.493 187.972 454.818 187.156 460.143 186.219 471.475 185.889 480 185.558 488.553 185.803 503.12 186.436 512.5 187.068 521.85 188.461 535.575 189.533 543 190.605 550.425 193.023 562.8 194.905 570.5 196.788 578.2 199.956 589.225 201.945 595 203.934 600.775 207.936 610.45 210.837 616.5 213.739 622.55 218.765 631.55 222.006 636.5 225.247 641.45 230.62 648.899 233.946 653.054 237.272 657.208 244.467 664.934 249.936 670.222 256.01 676.096 264.827 683.153 272.594 688.359 279.587 693.045 291.785 700.035 299.701 703.89 307.616 707.746 319.444 712.741 325.983 714.991 332.523 717.241 342.126 720.157 347.324 721.472 352.522 722.787 362.581 725.011 369.678 726.414 376.775 727.818 388.785 729.861 396.368 730.956 403.951 732.05 410.31 733.102 410.5 733.293 410.689 733.484 408.816 735.835 406.337 738.517 403.858 741.2 399.829 746.425 397.384 750.13 394.939 753.835 391.664 759.709 390.106 763.183 388.548 766.658 386.094 773.273 384.653 777.885 383.212 782.497 381.495 789.432 380.837 793.296 379.641 800.322 379.641 800.322 374.66 802.604 371.92 803.859 366.182 806.029 361.91 807.426 357.637 808.823 350.044 810.762 345.036 811.733 339.115 812.882 331.243 813.5 322.53 813.5 312.02 813.5 307.082 813.008 299.633 811.22 293.936 809.852 286.192 806.979 280.278 804.039 274.856 801.343 266.815 796.214 262.409 792.642 258.003 789.07 251.796 783.076 248.615 779.323 245.434 775.571 239.13 766.875 234.606 760 230.082 753.125 223.113 743.93 219.119 739.566 215.125 735.202 208.606 729.028 204.632 725.845 200.658 722.663 193.288 718.007 188.254 715.5 182.692 712.729 176.005 710.311 171.209 709.336 165.716 708.218 160.676 707.902 154.631 708.297 149.198 708.652 144.268 709.611 141.468 710.859 138.376 712.237 136.799 713.624 136.371 715.343 136 716.829 136.433 719.28 137.447 721.432 138.38 723.413 141.357 727.039 144.062 729.489 146.767 731.939 151.738 735.727 155.108 737.906 158.478 740.085 163.166 743.326 165.527 745.108 167.888 746.89 172.736 751.757 176.3 755.924 179.864 760.091 186.307 768.85 190.619 775.389 194.931 781.928 200.893 792.278 203.868 798.389 206.843 804.5 211.519 814.295 214.261 820.155 217.277 826.604 221.628 833.795 225.282 838.371 228.679 842.626 234.826 848.595 239.34 852.022 243.752 855.371 250.317 859.605 253.928 861.43 257.539 863.255 263.739 865.923 267.706 867.359 271.673 868.794 279.442 870.897 284.97 872.032 290.498 873.168 300.653 874.503 307.535 874.999 315.279 875.558 325.912 875.531 335.434 874.927 343.895 874.391 356.587 873.062 363.637 871.973 370.687 870.885 376.565 870.108 376.699 870.247 376.834 870.386 377.084 892.337 377.256 919.027 377.497 956.398 377.276 968.538 376.295 971.839 375.594 974.196 373.372 977.968 371.357 980.222 369.341 982.476 365.906 985.096 363.722 986.043 361.539 986.991 357.519 987.991 354.789 988.265 352.06 988.539 347.797 988.418 345.318 987.995 342.838 987.571 334.128 984.643 325.962 981.486 317.797 978.33 306.425 973.628 300.693 971.037 294.961 968.446 282.901 962.595 273.893 958.035 264.886 953.475 251.932 946.366 245.108 942.237 238.284 938.107 227.788 931.31 221.783 927.131 215.777 922.952 205.648 915.614 199.272 910.825 192.896 906.035 182.176 897.252 175.45 891.308 168.724 885.364 158.344 875.775 152.385 870 146.426 864.225 135.089 852.075 127.192 843 119.296 833.925 108.866 821.189 104.016 814.698 99.166 808.206 91.542 797.406 87.073 790.698 82.605 783.989 75.891 773.325 72.152 767 68.413 760.675 62.409 749.669 58.81 742.543 55.21 735.417 50.058 724.617 47.359 718.543 44.661 712.469 40.214 701.875 37.477 695 34.741 688.125 30.321 675.865 27.655 667.755 24.99 659.646 20.802 644.796 18.349 634.755 15.895 624.715 12.794 609.975 11.457 602 10.121 594.025 8.329 582.003 7.477 575.283 6.625 568.564 5.4 554.839 4.755 544.783 4.036 533.556 3.809 516.273 4.168 500 4.546 482.863 5.499 467.14 6.867 455.5 8.029 445.6 10.496 429.175 12.349 419 14.201 408.825 17.279 394.425 19.188 387 21.097 379.575 24.732 367.023 27.265 359.107 29.798 351.19 34.674 337.69 38.101 329.107 41.527 320.523 47.563 306.544 51.514 298.043 55.464 289.541 61.83 276.941 65.66 270.043 69.489 263.144 76.183 251.875 80.535 245 84.887 238.125 92.057 227.428 96.468 221.229 100.879 215.03 108.16 205.355 112.648 199.729 117.136 194.103 125.423 184.325 131.065 178 136.706 171.675 146.026 161.82 151.775 156.1 157.524 150.38 168.575 140.201 176.333 133.481 184.09 126.76 195.577 117.372 201.858 112.619 208.14 107.866 219.659 99.761 227.457 94.608 235.254 89.454 248.099 81.504 256.001 76.939 263.903 72.375 276.633 65.621 284.29 61.93 291.947 58.24 306.065 52.064 315.664 48.205 325.263 44.347 340.011 38.941 348.437 36.192 356.864 33.443 371.12 29.331 380.118 27.052 389.116 24.774 402.683 21.812 410.268 20.47 417.852 19.127 429.242 17.368 435.578 16.562 441.915 15.755 452.819 14.623 459.809 14.047 466.799 13.471 485.113 13.002 500.505 13.005 517.033 13.008 535.324 13.617 545.179 14.493 554.357 15.309 567.971 16.89 575.431 18.007 582.892 19.124 594.366 21.155 600.929 22.52 607.492 23.885 618.892 26.606 626.262 28.566 633.631 30.526 645.915 34.185 653.558 36.697 661.201 39.21 675.271 44.405 684.824 48.243 694.378 52.08 708.459 58.24 716.116 61.93 723.773 65.621 736.503 72.367 744.405 76.923 752.307 81.478 766.365 90.274 775.646 96.469 784.926 102.665 797.656 111.782 803.935 116.731 810.213 121.679 821.156 130.842 828.253 137.094 835.35 143.345 845.981 153.366 851.879 159.363 857.776 165.36 867.551 175.944 873.601 182.883 879.651 189.823 887.394 199.1 890.806 203.5 894.219 207.9 900.573 216.515 904.928 222.644 909.282 228.774 916.233 239.178 920.374 245.764 924.516 252.35 931.01 263.329 934.807 270.162 938.603 276.995 944.942 289.541 948.892 298.043 952.843 306.544 958.879 320.523 962.305 329.107 965.732 337.69 970.608 351.19 973.141 359.107 975.674 367.023 979.309 379.575 981.218 387 983.128 394.425 986.237 408.999 988.128 419.387 990.019 429.776 992.564 447.326 993.783 458.387 995.615 475.008 996 484.055 996 510.5 996 528.1 995.431 549.306 994.735 557.625 994.039 565.944 992.364 579.894 991.012 588.625 989.661 597.356 987.409 610.252 986.007 617.282 984.606 624.312 981.733 636.462 979.623 644.282 977.514 652.102 973.819 664.35 971.414 671.5 969.008 678.65 964.926 689.824 962.341 696.331 959.757 702.837 955.224 713.547 952.267 720.131 949.311 726.714 944.225 737.365 940.965 743.8 937.705 750.235 931.516 761.404 927.212 768.62 922.908 775.835 915.436 787.535 910.607 794.62 905.779 801.704 898.621 811.775 894.7 817 890.779 822.225 881.53 833.475 874.147 842 866.764 850.525 855.65 862.523 849.451 868.662 843.251 874.801 833.042 884.401 826.764 889.994 820.486 895.588 810.213 904.102 803.935 908.914 797.656 913.726 787.383 921.304 781.105 925.754 774.827 930.204 763.733 937.473 756.451 941.908 749.17 946.343 735.547 953.883 726.177 958.663 716.808 963.443 703.113 970.001 695.743 973.238 688.373 976.474 676.759 981.194 669.935 983.726 659.478 987.606 656.354 988.343 650.054 988.415 644.647 988.476 641.401 987.964 638.311 986.562 635.963 985.496 632.37 982.71 630.326 980.371 628.283 978.032 626.086 974.352 625.444 972.193 624.592 969.329 624.275 946.937 624.27 889.384 624.266 824.365 624.003 808.75 622.775 800.544 621.956 795.069 620.33 786.969 619.161 782.544 617.992 778.12 615.395 770.632 613.39 765.905 611.385 761.177 607.683 754.202 605.164 750.405 602.645 746.607 598.473 741.359 595.895 738.742 593.316 736.125 591.448 733.74 591.744 733.442 592.04 733.143 598.476 732.026 606.046 730.959 613.616 729.892 625.616 727.874 632.713 726.473 639.81 725.073 650.977 722.54 657.528 720.845 664.079 719.149 674.302 715.972 680.245 713.785 686.188 711.597 695.235 707.851 700.348 705.461 705.461 703.07 713.775 698.661 718.823 695.663 723.871 692.665 731.696 687.548 736.212 684.29 740.728 681.033 747.516 675.579 751.295 672.169 755.075 668.76 761.805 661.59 766.25 656.235 770.695 650.881 776.712 642.9 779.62 638.5 782.528 634.1 786.708 627.125 788.908 623 791.107 618.875 794.906 610.482 797.35 604.349 799.793 598.215 803.166 588.369 804.845 582.468 806.524 576.567 809.014 566.285 810.378 559.619 811.742 552.954 813.556 542.325 814.41 536 815.263 529.675 816.231 513.475 816.559 500 816.944 484.204 816.746 471.414 816.003 464 815.368 457.675 813.956 448.225 812.866 443 811.775 437.775 809.292 428.55 807.347 422.5 805.403 416.45 801.131 405.875 797.855 399 794.578 392.125 789.048 382.225 785.565 377 782.082 371.775 776.36 364.082 772.849 359.904 766.465 352.307 766.465 352.307 768.868 344.904 770.189 340.832 772.255 332.55 773.458 326.5 775.297 317.253 775.646 312.154 775.646 294.5 775.646 275.632 775.37 272.104 772.929 259.748 771.435 252.184 768.389 240.347 766.16 233.444 762.871 223.26 761.656 220.686 759.718 219.797 758.174 219.088 753.372 218.908 746.14 219.287 739.147 219.653 731.227 220.832 725.024 222.431 719.565 223.838 710.126 226.821 704.05 229.06 697.973 231.299 687.03 236.049 679.732 239.617 672.433 243.185 662.441 248.393 657.528 251.191 652.615 253.99 643.458 259.651 637.18 263.772 L625.765 271.264 Z" fill="#ffffff" fill-opacity="1" stroke="none"/>
</svg>
