<?xml version="1.0" encoding="UTF-8"?>
<svg width="992px" height="1000px" viewBox="4 1 992 1000" xmlns="http://www.w3.org/2000/svg" xmlns:xlink="http://www.w3.org/1999/xlink" version="1.1">
 <!-- Generated by Pixelmator Pro 2.1.2 -->
 <path id="Instagram-icon" d="M520.836 1000.328 C441.983 1000.519 371.216 1000.545 363.576 1000.384 355.936 1000.223 337.63 999.615 322.897 999.032 308.163 998.45 289.634 997.517 281.721 996.959 273.809 996.402 261.754 995.249 254.933 994.397 248.111 993.545 234.856 991.321 225.476 989.454 215.558 987.481 201.648 983.801 192.238 980.66 183.337 977.689 170.251 972.719 163.156 969.617 156.062 966.514 146.686 961.905 142.321 959.375 137.955 956.845 130.142 951.941 124.958 948.478 119.774 945.014 111.223 938.572 105.956 934.162 100.69 929.752 92.286 922.017 87.282 916.973 82.278 911.929 74.603 903.46 70.227 898.151 65.852 892.843 59.46 884.225 56.024 879 52.588 873.775 47.722 865.9 45.212 861.5 42.701 857.1 38.129 847.65 35.05 840.5 31.972 833.35 27.051 820.191 24.116 811.258 21.059 801.955 17.324 787.643 15.374 777.758 13.501 768.266 11.296 755.1 10.474 748.5 9.652 741.9 8.469 728.85 7.845 719.5 7.221 710.15 6.319 694.4 5.842 684.5 5.365 674.6 4.662 612.05 4.281 545.5 3.777 457.689 3.938 408.865 4.867 367.5 5.571 336.15 6.498 303.975 6.926 296 7.355 288.025 8.228 275.65 8.866 268.5 9.504 261.35 11.366 247.4 13.004 237.5 14.642 227.6 17.256 214.55 18.812 208.5 20.369 202.45 23.47 192.18 25.704 185.677 27.938 179.174 32.214 168.149 35.207 161.177 38.199 154.205 42.701 144.9 45.212 140.5 47.722 136.1 52.588 128.225 56.024 123 59.46 117.775 65.852 109.157 70.227 103.849 74.603 98.54 82.278 90.071 87.282 85.027 92.286 79.983 100.69 72.248 105.956 67.838 111.223 63.428 119.774 56.986 124.958 53.522 130.142 50.059 137.955 45.155 142.321 42.625 146.686 40.095 156.062 35.486 163.156 32.383 170.251 29.281 183.337 24.311 192.238 21.34 201.648 18.199 215.558 14.519 225.476 12.546 234.856 10.679 248.111 8.458 254.933 7.609 261.754 6.76 273.139 5.622 280.233 5.08 287.327 4.538 308.312 3.511 326.865 2.797 350.171 1.901 403.846 1.5 500.496 1.5 596.72 1.5 650.614 1.901 673.135 2.784 691.143 3.49 711.904 4.517 719.271 5.066 726.638 5.615 738.246 6.759 745.067 7.608 751.889 8.457 765.144 10.679 774.524 12.546 784.442 14.519 798.352 18.199 807.762 21.34 816.663 24.311 829.749 29.281 836.844 32.383 843.938 35.486 853.314 40.095 857.679 42.625 862.045 45.155 869.858 50.059 875.042 53.522 880.226 56.986 888.777 63.428 894.044 67.838 899.31 72.248 907.714 79.983 912.718 85.027 917.722 90.071 925.397 98.54 929.773 103.849 934.148 109.157 940.54 117.775 943.976 123 947.412 128.225 952.278 136.1 954.788 140.5 957.299 144.9 961.801 154.205 964.793 161.177 967.786 168.149 972.062 179.174 974.296 185.677 976.53 192.18 979.631 202.45 981.188 208.5 982.744 214.55 985.358 227.6 986.996 237.5 988.634 247.4 990.496 261.35 991.134 268.5 991.772 275.65 992.645 288.025 993.074 296 993.502 303.975 994.429 336.15 995.133 367.5 996.062 408.865 996.223 457.689 995.719 545.5 995.338 612.05 994.635 674.6 994.158 684.5 993.681 694.4 992.779 710.15 992.155 719.5 991.531 728.85 990.34 741.9 989.508 748.5 988.676 755.1 986.481 768.235 984.631 777.689 982.672 787.696 979.026 801.695 975.906 811.189 972.959 820.16 968.028 833.35 964.95 840.5 961.872 847.65 957.299 857.1 954.788 861.5 952.278 865.9 947.412 873.775 943.976 879 940.54 884.225 934.148 892.843 929.773 898.151 925.397 903.46 917.722 911.929 912.718 916.973 907.714 922.017 899.31 929.752 894.044 934.162 888.777 938.572 880.226 945.019 875.042 948.489 869.858 951.958 861.638 957.081 856.775 959.872 851.912 962.663 842.536 967.259 835.939 970.086 829.343 972.913 816.663 977.664 807.762 980.644 798.259 983.825 784.539 987.461 774.524 989.453 765.144 991.318 752.112 993.53 745.563 994.368 739.015 995.207 726.067 996.408 716.79 997.037 707.513 997.666 691.887 998.585 682.064 999.079 672.242 999.574 599.689 1000.136 520.836 1000.328 Z M492.559 910.757 C553.677 910.868 621.318 910.533 642.873 910.014 664.428 909.495 690.547 908.591 700.916 908.006 711.284 907.421 725.348 906.264 732.169 905.434 738.99 904.605 749.036 903.017 754.493 901.906 759.95 900.795 769.012 898.542 774.632 896.9 780.251 895.257 790.26 891.7 796.873 888.994 803.486 886.287 812.43 881.921 816.748 879.29 821.066 876.659 828.247 871.746 832.706 868.373 837.164 865 845.747 857.106 851.778 850.83 858.388 843.953 865.643 835.066 870.042 828.46 874.056 822.432 878.992 813.9 881.01 809.5 883.029 805.1 886.26 797.225 888.191 792 890.122 786.775 893.27 776.2 895.186 768.5 897.103 760.8 899.373 749.55 900.231 743.5 901.089 737.45 902.222 727.276 902.749 720.891 903.276 714.507 904.289 694.032 905.001 675.391 905.9 651.859 906.296 598.558 906.296 501 906.296 404.637 905.895 349.976 905.021 327 904.32 308.575 903.293 287.875 902.739 281 902.185 274.125 900.847 262.875 899.766 256 898.685 249.125 896.677 239 895.304 233.5 893.931 228 891.435 219.45 889.758 214.5 888.08 209.55 884.784 201.085 882.433 195.689 880.082 190.293 874.706 180.651 870.485 174.263 865.577 166.836 858.845 158.522 851.811 151.204 845.762 144.91 837.138 136.98 832.648 133.583 828.158 130.186 820.817 125.208 816.335 122.521 811.853 119.834 802.915 115.479 796.473 112.843 790.03 110.207 780.851 106.899 776.075 105.492 771.299 104.085 763.505 102.052 758.755 100.975 754.006 99.897 745.746 98.357 740.4 97.552 735.055 96.747 723.76 95.578 715.302 94.956 706.844 94.333 691.887 93.433 682.064 92.956 672.242 92.479 611.521 91.769 547.128 91.378 462.834 90.865 413.244 91.026 370.025 91.951 337.01 92.658 303.971 93.599 296.604 94.044 289.237 94.488 278.353 95.355 272.418 95.971 266.482 96.586 257.776 97.761 253.07 98.582 248.365 99.403 240.05 101.204 234.593 102.584 229.136 103.965 220.653 106.478 215.742 108.169 210.83 109.86 202.432 113.182 197.078 115.551 191.724 117.92 182.125 123.342 175.746 127.599 167.001 133.436 160.835 138.68 150.675 148.92 140.515 159.16 135.312 165.375 129.521 174.189 125.297 180.618 119.918 190.293 117.567 195.689 115.216 201.085 111.92 209.55 110.242 214.5 108.565 219.45 106.069 228 104.696 233.5 103.323 239 101.315 249.125 100.234 256 99.153 262.875 97.815 274.125 97.261 281 96.707 287.875 95.68 308.575 94.979 327 94.105 349.976 93.704 404.637 93.704 501 93.704 598.558 94.1 651.859 94.999 675.391 95.711 694.032 96.724 714.507 97.251 720.891 97.778 727.276 98.907 737.45 99.761 743.5 100.614 749.55 103.042 761.357 105.156 769.737 107.27 778.118 111.429 791.082 114.398 798.547 117.367 806.012 121.961 815.728 124.606 820.139 127.252 824.55 132.155 831.836 135.501 836.329 138.848 840.823 146.681 849.474 152.907 855.553 159.731 862.215 168.548 869.527 175.102 873.961 181.083 878.006 189.548 882.98 193.914 885.015 198.279 887.049 206.096 890.308 211.285 892.257 216.473 894.206 227.188 897.409 235.097 899.374 243.005 901.339 254.164 903.617 259.894 904.437 265.623 905.256 276.116 906.391 283.21 906.958 290.304 907.525 308.386 908.46 323.393 909.036 338.399 909.612 357.598 910.19 366.056 910.32 374.515 910.45 431.441 910.647 492.559 910.757 Z M497.52 757.855 C493.7 757.78 485.663 757.341 479.66 756.88 473.658 756.419 462.701 754.924 455.311 753.558 447.922 752.192 436.397 749.485 429.701 747.542 423.004 745.599 412.754 742.142 406.922 739.859 401.089 737.576 392.076 733.567 386.892 730.95 381.708 728.333 372.658 723.243 366.782 719.639 360.905 716.036 351.529 709.598 345.946 705.334 340.363 701.07 328.856 690.588 320.376 682.041 311.895 673.493 301.495 661.896 297.264 656.269 293.034 650.642 286.647 641.192 283.072 635.269 279.496 629.346 274.604 620.571 272.201 615.77 269.797 610.968 266.04 602.509 263.851 596.971 261.662 591.434 258.35 581.845 256.491 575.663 254.631 569.48 251.992 559.04 250.625 552.461 249.258 545.882 247.671 536.225 247.097 531 246.523 525.775 245.779 516.325 245.443 510 245.107 503.675 245.345 491.75 245.972 483.5 246.6 475.25 248.191 462.613 249.509 455.418 250.827 448.223 253.477 436.833 255.399 430.106 257.32 423.379 260.745 413.066 263.01 407.188 265.275 401.309 269.253 392.225 271.849 387 274.446 381.775 279.496 372.654 283.071 366.731 286.647 360.808 293.034 351.358 297.264 345.731 301.495 340.104 311.895 328.507 320.376 319.959 328.856 311.412 340.363 300.93 345.946 296.666 351.529 292.402 360.905 285.964 366.782 282.361 372.658 278.757 381.708 273.667 386.892 271.05 392.076 268.433 401.089 264.424 406.922 262.141 412.754 259.858 422.986 256.406 429.661 254.47 436.335 252.533 447.636 249.862 454.775 248.534 461.914 247.205 474.451 245.601 482.637 244.969 490.822 244.337 502.654 244.096 508.93 244.435 515.205 244.774 524.581 245.524 529.765 246.102 534.949 246.681 544.531 248.281 551.058 249.658 557.585 251.036 567.944 253.696 574.079 255.57 580.213 257.444 589.726 260.783 595.22 262.989 600.714 265.195 609.107 268.982 613.872 271.404 618.636 273.827 627.342 278.757 633.218 282.361 639.095 285.965 648.471 292.402 654.054 296.666 659.637 300.93 671.144 311.412 679.624 319.959 688.105 328.507 698.505 340.104 702.736 345.731 706.966 351.358 713.353 360.808 716.929 366.731 720.504 372.654 725.554 381.775 728.151 387 730.747 392.225 734.725 401.309 736.99 407.188 739.255 413.066 742.68 423.379 744.601 430.106 746.523 436.833 749.185 448.289 750.518 455.565 751.852 462.841 753.455 476.04 754.081 484.897 754.937 497.01 754.937 504.99 754.081 517.103 753.455 525.96 751.852 539.159 750.518 546.435 749.185 553.711 746.523 565.167 744.601 571.894 742.68 578.621 739.255 588.934 736.99 594.813 734.725 600.691 730.747 609.775 728.151 615 725.554 620.225 720.504 629.346 716.929 635.269 713.353 641.192 706.966 650.642 702.736 656.269 698.505 661.896 688.105 673.493 679.624 682.041 671.144 690.588 659.637 701.07 654.054 705.334 648.471 709.598 639.095 716.036 633.218 719.639 627.342 723.243 618.292 728.333 613.108 730.95 607.924 733.567 598.911 737.576 593.078 739.859 587.246 742.142 577.014 745.594 570.339 747.53 563.665 749.467 552.364 752.137 545.225 753.464 538.086 754.792 525.995 756.354 518.355 756.935 510.715 757.516 501.339 757.93 497.52 757.855 Z M505.188 667.357 C512.679 667.113 522.278 666.298 526.519 665.545 530.76 664.792 537.957 663.215 542.513 662.042 547.069 660.868 554.375 658.591 558.749 656.982 563.123 655.373 571.004 651.741 576.262 648.91 581.521 646.079 589.841 641.022 594.753 637.672 600.197 633.958 608.732 626.49 616.62 618.54 624.508 610.59 631.918 601.987 635.602 596.5 638.926 591.55 643.944 583.164 646.752 577.864 649.561 572.564 653.171 564.604 654.775 560.176 656.378 555.748 658.796 547.709 660.148 542.312 661.5 536.915 663.189 528.45 663.902 523.5 664.614 518.55 665.197 508.425 665.197 501 665.197 493.575 664.614 483.45 663.902 478.5 663.189 473.55 661.5 465.085 660.148 459.688 658.796 454.291 656.378 446.252 654.775 441.824 653.171 437.396 649.561 429.436 646.752 424.136 643.944 418.836 638.926 410.45 635.602 405.5 631.918 400.013 624.508 391.41 616.62 383.46 608.732 375.51 600.197 368.042 594.753 364.328 589.841 360.978 581.521 355.921 576.262 353.09 571.004 350.259 563.107 346.621 558.713 345.005 554.319 343.389 546.343 340.951 540.989 339.589 535.634 338.226 527.235 336.524 522.324 335.806 517.413 335.088 507.367 334.5 500 334.5 492.633 334.5 482.587 335.088 477.676 335.806 472.765 336.524 464.366 338.226 459.011 339.589 453.657 340.951 445.681 343.389 441.287 345.005 436.893 346.621 428.996 350.259 423.738 353.09 418.479 355.921 410.159 360.978 405.247 364.328 399.803 368.042 391.268 375.51 383.38 383.46 375.491 391.41 368.082 400.013 364.398 405.5 361.074 410.45 356.056 418.836 353.248 424.136 350.439 429.436 346.829 437.396 345.225 441.824 343.622 446.252 341.204 454.291 339.852 459.688 338.5 465.085 336.811 473.55 336.098 478.5 335.386 483.45 334.803 493.575 334.803 501 334.803 508.425 335.386 518.55 336.098 523.5 336.811 528.45 338.5 536.915 339.852 542.312 341.204 547.709 343.622 555.748 345.225 560.176 346.829 564.604 350.439 572.564 353.248 577.864 356.056 583.164 361.074 591.55 364.398 596.5 368.082 601.987 375.491 610.59 383.38 618.54 391.268 626.49 399.803 633.958 405.247 637.672 410.159 641.022 418.479 646.079 423.738 648.91 428.996 651.741 436.893 655.379 441.287 656.995 445.681 658.611 453.657 661.037 459.011 662.387 464.366 663.736 472.095 665.33 476.188 665.93 480.281 666.529 485.415 667.195 487.598 667.41 489.781 667.624 497.696 667.601 505.188 667.357 Z M767.482 293.547 C762.521 293.749 756.671 293.525 754.483 293.05 752.295 292.575 747.879 291.256 744.671 290.12 741.463 288.983 736.11 286.261 732.775 284.071 729.44 281.881 724.858 278.156 722.591 275.794 720.325 273.432 716.72 268.741 714.581 265.368 712.442 261.995 709.618 255.92 708.306 251.868 706.411 246.018 705.916 242.337 705.898 234 705.881 225.616 706.35 222.044 708.225 216.275 709.517 212.301 712.75 205.709 715.41 201.625 718.07 197.542 722.451 192.203 725.145 189.762 727.839 187.32 733.089 183.713 736.811 181.747 740.534 179.78 746.466 177.42 749.994 176.502 753.7 175.538 760.196 174.837 765.373 174.843 772.249 174.851 776.185 175.45 782.274 177.417 786.639 178.827 792.606 181.373 795.532 183.075 798.458 184.777 803.685 189.066 807.147 192.608 811.263 196.818 814.655 201.547 816.947 206.273 818.875 210.248 821.186 216.425 822.083 220 822.979 223.575 823.698 230.1 823.68 234.5 823.662 238.9 822.895 245.425 821.975 249 821.056 252.575 818.707 258.57 816.755 262.321 814.804 266.073 811.244 271.344 808.844 274.034 806.445 276.724 801.349 281.023 797.521 283.588 793.693 286.153 787.398 289.36 783.532 290.715 778.659 292.423 773.736 293.292 767.482 293.547 Z" fill="#ffffff" fill-opacity="1" stroke="none"/>
</svg>
