<?xml version="1.0" encoding="UTF-8"?>
<svg width="992px" height="1000px" viewBox="4 0 992 1000" xmlns="http://www.w3.org/2000/svg" xmlns:xlink="http://www.w3.org/1999/xlink" version="1.1">
 <!-- Generated by Pixelmator Pro 2.1.2 -->
 <path id="Linkedin-icon" d="M499.335 999.918 C121.679 999.847 68.13 999.654 62.036 998.344 58.217 997.523 52.158 995.612 48.573 994.098 44.988 992.584 39.419 989.581 36.197 987.426 32.976 985.271 27.94 981.088 25.006 978.131 22.072 975.173 18.029 970.192 16.022 967.061 14.014 963.93 11.191 958.698 9.749 955.434 8.306 952.17 6.422 946.031 5.563 941.792 4.155 934.846 4 891.111 4 499.5 4 110.724 4.162 64.103 5.54 57.208 6.453 52.637 8.955 45.634 11.69 40 15.528 32.093 17.723 29.069 24.783 21.964 31.75 14.954 34.951 12.586 42.691 8.712 47.874 6.117 54.794 3.208 58.068 2.247 63.686 0.598 88.309 0.483 496.069 0.194 890.792 -0.086 928.845 0.028 936.549 1.506 941.187 2.396 947.562 4.174 950.715 5.458 953.868 6.741 958.991 9.3 962.099 11.145 965.206 12.99 971.136 17.876 975.277 22.001 979.74 26.449 984.347 32.284 986.594 36.335 988.679 40.092 991.553 46.617 992.981 50.833 995.578 58.5 995.578 58.5 995.882 495.5 996.156 891.357 996.037 933.285 994.61 940.843 993.743 945.431 991.692 952.181 990.051 955.843 988.411 959.504 985.552 964.812 983.698 967.639 981.844 970.465 978.052 975.071 975.272 977.873 972.491 980.676 967.449 984.864 964.066 987.179 960.684 989.494 955.007 992.615 951.449 994.114 947.892 995.613 941.541 997.551 937.335 998.42 930.431 999.847 887.901 999.992 499.335 999.918 Z M297.654 852 L297.654 375 224.24 375 150.827 375 150.827 613.5 150.827 852 224.24 852 297.654 852 Z M536.744 852 C536.744 652.178 537.139 599.305 537.766 591.395 538.328 584.303 539.456 574.569 540.274 569.764 541.091 564.96 542.866 557.182 544.218 552.48 545.569 547.779 548.004 540.979 549.627 537.37 551.251 533.76 554.557 528.038 556.973 524.654 559.39 521.269 563.528 516.415 566.169 513.866 568.81 511.317 573.43 507.613 576.437 505.634 579.443 503.655 585.545 500.696 589.996 499.058 594.447 497.421 602.032 495.5 606.851 494.791 611.671 494.081 620.971 493.529 627.518 493.565 635.061 493.606 642.242 494.272 647.116 495.384 651.346 496.349 657.948 498.722 661.787 500.657 665.625 502.593 671.504 506.725 674.85 509.838 678.197 512.952 683.019 518.71 685.566 522.632 688.527 527.194 691.476 533.683 693.745 540.632 695.697 546.61 697.997 555.775 698.858 561 699.718 566.225 700.867 576.8 701.412 584.5 701.992 592.702 702.406 650.99 702.411 725.25 L702.42 852 776.395 852 850.37 852 849.89 700.75 C849.581 603.462 849.029 545.754 848.341 539 847.754 533.225 846.357 521.975 845.236 514 844.115 506.025 842.103 494.595 840.763 488.601 839.424 482.607 836.529 472.257 834.332 465.601 832.134 458.945 828.149 449 825.476 443.5 822.803 438 818.264 429.9 815.39 425.5 812.516 421.1 805.453 412.736 799.695 406.913 793.513 400.661 785.656 393.958 780.508 390.545 775.712 387.365 768.213 382.997 763.842 380.838 759.472 378.679 751.342 375.382 745.775 373.513 740.209 371.643 731.19 369.208 725.734 368.102 720.277 366.996 712.242 365.623 707.876 365.051 703.511 364.479 692.441 363.712 683.275 363.348 672.552 362.921 662.709 363.111 655.67 363.88 649.653 364.538 640.482 365.957 635.29 367.034 630.099 368.111 621.762 370.364 616.764 372.042 611.766 373.719 602.766 377.557 596.764 380.571 590.762 383.585 581.614 389.077 576.435 392.775 571.256 396.474 562.298 404.225 556.528 410 550.041 416.494 543.656 424.125 539.795 430 536.361 435.225 532.931 439.646 532.172 439.823 531.014 440.094 530.791 434.887 530.791 407.573 L530.791 375 460.85 375 390.909 375 390.909 613.5 390.909 852 463.826 852 536.744 852 Z M227.713 309.539 C234.148 309.292 241.792 308.288 246.343 307.093 250.588 305.979 257.736 303.257 262.229 301.044 266.722 298.832 273.995 294.155 278.391 290.651 283.29 286.746 288.749 281.116 292.493 276.107 295.853 271.613 300.201 264.586 302.154 260.492 304.108 256.398 306.685 249.1 307.88 244.274 309.514 237.683 310.055 232.515 310.055 223.5 310.055 214.335 309.529 209.43 307.829 202.737 306.604 197.917 303.985 190.717 302.008 186.737 300.032 182.757 296.508 176.8 294.179 173.5 291.85 170.2 287.078 164.734 283.576 161.354 280.073 157.974 274.429 153.398 271.032 151.185 267.635 148.972 261.446 145.731 257.279 143.982 253.112 142.234 246.317 140.097 242.18 139.234 237.857 138.333 229.989 137.687 223.682 137.714 215.932 137.749 210.278 138.382 204.44 139.87 199.893 141.029 193.054 143.427 189.241 145.198 185.428 146.97 179.802 150.167 176.737 152.304 173.672 154.441 168.559 158.734 165.374 161.844 162.189 164.955 157.634 170.228 155.251 173.562 152.869 176.896 149.552 182.521 147.881 186.062 146.21 189.603 143.961 195.458 142.884 199.074 141.807 202.69 140.502 209.777 139.984 214.824 139.405 220.464 139.391 227.392 139.946 232.802 140.443 237.643 141.806 244.73 142.976 248.552 144.145 252.373 146.451 258.2 148.1 261.5 149.749 264.8 152.799 270.028 154.878 273.117 156.957 276.206 161.39 281.487 164.728 284.853 168.067 288.218 174.218 293.234 178.398 296 182.577 298.766 189.46 302.375 193.694 304.02 197.927 305.666 204.858 307.675 209.095 308.485 214.136 309.449 220.572 309.813 227.713 309.539 Z" fill="#ffffff" fill-opacity="1" stroke="none"/>
</svg>
